<?xml version="1.0" encoding="UTF-8" standalone="no"?>
<svg
   xmlns:dc="http://purl.org/dc/elements/1.1/"
   xmlns:cc="http://creativecommons.org/ns#"
   xmlns:rdf="http://www.w3.org/1999/02/22-rdf-syntax-ns#"
   xmlns:svg="http://www.w3.org/2000/svg"
   xmlns="http://www.w3.org/2000/svg"
   xmlns:sodipodi="http://sodipodi.sourceforge.net/DTD/sodipodi-0.dtd"
   xmlns:inkscape="http://www.inkscape.org/namespaces/inkscape"
   width="265.47934mm"
   height="184.62944mm"
   viewBox="0 0 265.47934 184.62943"
   version="1.1"
   id="svg8"
   inkscape:version="1.0.2-2 (e86c870879, 2021-01-15)"
   sodipodi:docname="Bathtub.svg">
  <defs
     id="defs2" />
  <sodipodi:namedview
     id="base"
     pagecolor="#ffffff"
     bordercolor="#666666"
     borderopacity="1.0"
     inkscape:pageopacity="0.0"
     inkscape:pageshadow="2"
     inkscape:zoom="0.35"
     inkscape:cx="-238.48661"
     inkscape:cy="-186.68976"
     inkscape:document-units="mm"
     inkscape:current-layer="layer1"
     inkscape:document-rotation="0"
     showgrid="false"
     inkscape:window-width="1920"
     inkscape:window-height="1027"
     inkscape:window-x="760"
     inkscape:window-y="214"
     inkscape:window-maximized="1" />
  <metadata
     id="metadata5">
    <rdf:RDF>
      <cc:Work
         rdf:about="">
        <dc:format>image/svg+xml</dc:format>
        <dc:type
           rdf:resource="http://purl.org/dc/dcmitype/StillImage" />
        <dc:title></dc:title>
      </cc:Work>
    </rdf:RDF>
  </metadata>
  <g
     inkscape:label="Layer 1"
     inkscape:groupmode="layer"
     id="layer1"
     transform="translate(-9.9463444,-72.312239)">
    <rect
       style="fill:none;stroke:#000000;stroke-width:5.29167;stroke-linecap:round;stroke-miterlimit:4;stroke-dasharray:none;paint-order:markers fill stroke"
       id="rect833"
       width="260.18768"
       height="16.393024"
       x="12.592179"
       y="128.25288"
       ry="8.6934528"
       rx="8.6934528" />
    <path
       id="rect835"
       style="fill:none;stroke:#000000;stroke-width:5.29167;stroke-linecap:round;stroke-miterlimit:4;stroke-dasharray:none;paint-order:markers fill stroke"
       d="m 257.5529,144.85609 -9.35158,65.24887 c -1.11281,7.76438 -5.41187,14.07592 -12.13424,14.07592 H 49.304969 c -6.72237,0 -11.021438,-6.31154 -12.134243,-14.07592 l -9.351582,-65.24887"
       sodipodi:nodetypes="cssssc" />
    <g
       id="g845"
       transform="translate(-3.0291961,4.9136905)">
      <path
         id="path838"
         style="fill:none;stroke:#000000;stroke-width:5.24424;stroke-linecap:round;stroke-miterlimit:4;stroke-dasharray:none;paint-order:markers fill stroke"
         d="m 80.787181,223.51477 c 0,0 0.250434,27.84666 -14.095532,25.79468 -14.345962,-2.05197 -6.299203,-28.71183 -6.299203,-28.71183"
         sodipodi:nodetypes="czc" />
      <path
         id="path841"
         style="fill:none;stroke:#000000;stroke-width:5.24424;stroke-linecap:round;stroke-miterlimit:4;stroke-dasharray:none;paint-order:markers fill stroke"
         d="m 210.64324,223.51477 c 0,0 -0.25042,27.84666 14.09555,25.79468 14.34597,-2.05197 6.29919,-28.71183 6.29919,-28.71183"
         sodipodi:nodetypes="czc" />
    </g>
    <path
       id="rect847"
       style="fill:#3174ce;fill-opacity:1;stroke:#000000;stroke-width:5.292;stroke-linecap:round;stroke-linejoin:round;stroke-miterlimit:4;stroke-dasharray:none;paint-order:markers fill stroke"
       d="m 157.35705,117.66955 h 68.7917 c 4.81616,0 8.69344,3.87728 8.69344,8.69344 v 69.54765 h -86.17858 v -69.54765 c 0,-4.81616 3.87728,-8.69344 8.69344,-8.69344 z"
       sodipodi:nodetypes="sssccss" />
    <path
       id="path883"
       style="fill:#ffe001;fill-opacity:1;stroke:#000000;stroke-width:2.36181;stroke-linecap:round;stroke-linejoin:round;stroke-miterlimit:4;stroke-dasharray:none;paint-order:markers fill stroke"
       d="m 96.424132,113.18988 c 0,9.58579 -12.573446,17.3566 -28.083571,17.3566 -15.510125,0 -28.083567,-7.77081 -28.083567,-17.3566 0,-3.44452 -1.5973,-10.11407 1.202596,-12.81354 1.717766,-1.656154 5.528155,0.3722 8.095079,2.10629 5.165906,3.48986 18.696676,-7.320863 20.694521,-5.814321 6.462604,4.873331 13.069903,2.016157 18.139016,3.866921 4.644441,1.69572 8.035926,8.0713 8.035926,12.65465 z"
       sodipodi:nodetypes="ssssssss" />
    <circle
       style="fill:#ffe001;fill-opacity:1;stroke:#000000;stroke-width:2.36196;stroke-linecap:round;stroke-linejoin:round;stroke-miterlimit:4;stroke-dasharray:none;paint-order:markers fill stroke"
       id="path861"
       cx="80.903732"
       cy="87.748421"
       r="14.255201" />
    <circle
       style="fill:#000000;fill-opacity:1;stroke:#000000;stroke-width:2.36196;stroke-linecap:round;stroke-linejoin:round;stroke-miterlimit:4;stroke-dasharray:none;paint-order:markers fill stroke"
       id="path863"
       cx="86.723907"
       cy="81.759552"
       r="2.6992099" />
    <path
       style="fill:#f69220;fill-opacity:1;stroke:#000000;stroke-width:2.36181;stroke-linecap:butt;stroke-linejoin:miter;stroke-miterlimit:4;stroke-dasharray:none;stroke-opacity:1"
       d="m 92.076224,87.311698 c -0.971482,-0.769089 -1.856162,8.568826 -1.856162,8.568826 0,0 11.695958,2.181014 13.148608,1.015694 2.08954,-2.625587 -4.521854,-5.228191 -6.040206,-5.197516 -1.120359,0.02263 8.043616,-4.520526 5.494046,-7.127614 C 101.81929,83.545236 92.076224,87.3117 92.076224,87.3117 Z"
       id="path879"
       sodipodi:nodetypes="cccsscc" />
    <circle
       style="fill:#ffffff;fill-opacity:1;stroke:none;stroke-width:26.0174;stroke-linecap:round;stroke-linejoin:round;stroke-miterlimit:4;stroke-dasharray:none;paint-order:markers fill stroke"
       id="path898"
       cx="87.290871"
       cy="82.043037"
       r="1.9711128" />
  </g>
</svg>
